<?xml version="1.0" encoding="UTF-8"?>
<svg width="32px" height="32px" viewBox="0 0 32 32" version="1.1" xmlns="http://www.w3.org/2000/svg" xmlns:xlink="http://www.w3.org/1999/xlink">
    <title>MK30xLegacy_icn_32px</title>
    <defs>
        <circle id="path-1" cx="16" cy="16" r="16"></circle>
    </defs>
    <g id="MK30xLegacy_icn_32px" stroke="none" stroke-width="1" fill="none" fill-rule="evenodd">
        <g id="Bildteil">
            <mask id="mask-2" fill="white">
                <use xlink:href="#path-1"></use>
            </mask>
            <use id="Oval" fill="#1068C9" xlink:href="#path-1"></use>
            <g id="Group" mask="url(#mask-2)" fill-opacity="0.6">
                <g transform="translate(6.5, 4.6667)" id="Group-2">
                    <path d="M9.74807544,4.7054465 L18.2786331,17.501283 C18.7381618,18.1905761 18.551901,19.1218801 17.862608,19.5814088 C17.6162067,19.7456763 17.3266952,19.8333333 17.0305577,19.8333333 L-0.0305576956,19.8333333 C-0.85898482,19.8333333 -1.5305577,19.1617605 -1.5305577,18.3333333 C-1.5305577,18.0371959 -1.44290065,17.7476843 -1.27863314,17.501283 L7.25192456,4.7054465 C7.71145325,4.01615346 8.64275726,3.82989266 9.33205029,4.28942135 C9.49682873,4.39927364 9.63822315,4.54066806 9.74807544,4.7054465 Z" id="Triangle" fill="#FFFFFF" transform="translate(8.5, 11.3333) rotate(90) translate(-8.5, -11.3333)"></path>
                    <path d="M15.7480754,4.7054465 L24.2786331,17.501283 C24.7381618,18.1905761 24.551901,19.1218801 23.862608,19.5814088 C23.6162067,19.7456763 23.3266952,19.8333333 23.0305577,19.8333333 L5.9694423,19.8333333 C5.14101518,19.8333333 4.4694423,19.1617605 4.4694423,18.3333333 C4.4694423,18.0371959 4.55709935,17.7476843 4.72136686,17.501283 L13.2519246,4.7054465 C13.7114532,4.01615346 14.6427573,3.82989266 15.3320503,4.28942135 C15.4968287,4.39927364 15.6382232,4.54066806 15.7480754,4.7054465 Z" id="Triangle" fill="#FFFFFF" transform="translate(14.5, 11.3333) rotate(90) translate(-14.5, -11.3333)"></path>
                    <path d="M5.999,3.99877564 L15.1278868,10.0852579 C15.8171799,10.5447866 16.0034407,11.4760906 15.543912,12.1653836 C15.4340597,12.3301621 15.2926653,12.4715565 15.1278868,12.5814088 L5.999,18.6677756 L5.999,3.99877564 Z" id="Combined-Shape" fill="#FFFFFF"></path>
                </g>
            </g>
        </g>
    </g>
</svg>